<?xml version="1.0" encoding="utf-8" ?>
<svg xmlns="http://www.w3.org/2000/svg" xmlns:xlink="http://www.w3.org/1999/xlink" width="1929" height="1911">
	<path fill="#1F1F1F" transform="scale(2.51196 2.48857)" d="M428.57 180.356C428.173 178.13 428.324 175.653 428.269 173.384C428.193 170.278 427.433 164.615 428.983 161.94L428.829 174.636C428.784 176.483 428.947 178.565 428.57 180.356Z"/>
	<path fill="#1F1F1F" transform="scale(2.51196 2.48857)" d="M143.048 180.446C143.814 181.404 143.108 182.29 143.809 183.345L143.794 215.966C143.804 216.625 144.102 217.021 144.116 217.641L144.119 225.027L144.155 467.366L144.152 558.61L144.13 585.842C144.099 589.761 143.631 593.766 144.032 597.672L143.073 597.246C142.509 593.355 143.079 589.013 143.133 585.073L143.2 564.327L143.221 478.792L143.048 180.446Z"/>
	<path fill="#1F1F1F" transform="scale(2.51196 2.48857)" d="M428.983 161.94C431.764 160.178 437.326 160.948 440.506 161.155L568.821 161.21L605.133 161.204L622.5 161.172C623.676 161.226 624.803 161.545 625.983 161.605L625.536 177.781L625.521 459.728L625.464 542.205L625.726 566.437C625.795 570.19 626.404 574.774 625.881 578.448L626.101 589.041C626.139 592.16 626.295 595.02 625.252 598.017L540.246 597.544C526.834 597.465 512.886 598.341 499.568 596.765C492.697 595.952 485.694 594.204 479.199 591.841C469.166 588.189 460.068 582.911 451.936 575.985C447.587 572.281 443.644 567.997 439.678 563.891C425.717 549.434 413.946 532.184 402.184 515.932L372.922 476.93L297.312 377.35L228.422 287.625C226.666 298.158 227.46 308.984 227.645 319.625L227.969 355.002L227.93 419.507C227.923 430.817 227.438 442.392 228.132 453.676L228.943 462.129C229.066 463.658 228.946 465.301 229.209 466.799C229.883 470.636 231.381 474.446 232.193 478.241C232.918 481.634 234.84 485.325 236.178 488.545C246.595 513.607 265.131 536.305 288.03 550.972C297.93 557.314 311.123 562.03 322.81 563.357C326.656 563.793 330.649 563.546 334.517 563.566C336.641 563.577 340.755 562.816 341.455 565.411C342.161 568.027 341.487 572.389 341.463 575.156L341.5 588.548C341.532 591.293 341.943 594.584 341.168 597.217C340.134 597.903 339.267 597.917 338.062 597.91L192.202 597.684L155.668 597.701C152.304 597.714 148.063 598.58 144.816 597.903C144.253 597.786 144.412 597.838 144.032 597.672C143.631 593.766 144.099 589.761 144.13 585.842L144.152 558.61L144.155 467.366L144.119 225.027L144.116 217.641C144.102 217.021 143.804 216.625 143.794 215.966L143.809 183.345C143.108 182.29 143.814 181.404 143.048 180.446L142.75 161.527C148.47 160.871 154.378 161.499 160.125 161.536L191.195 161.555L223.154 161.53C236.815 161.428 250.369 160.775 263.839 163.661C272.078 165.426 280.193 168.798 287.828 172.298C297.828 176.882 307.315 182.637 315.948 189.46C330.159 200.691 340.005 214.816 351.068 228.9L396.148 288.14L528.105 461.132L537.562 473.375C538.722 474.786 540.048 476.05 541.152 477.505L541.424 440.527L541.438 367.903L541.257 331.446C541.053 316.462 540.93 302.185 536.826 287.618C531.073 267.196 518.77 248.356 503.626 233.626C490.354 220.717 474.397 210.061 456.647 204.337C451.758 202.76 446.624 201.579 441.503 201.111C439.278 200.907 430.957 201.583 429.574 200.865C429.311 200.729 429.175 200.428 428.975 200.21C428.22 198.692 428.534 196.295 428.53 194.584L428.57 180.356C428.947 178.565 428.784 176.483 428.829 174.636L428.983 161.94ZM440.506 161.155C442.98 163.041 450.177 161.824 453.463 162.035L563.928 162.087L619.139 162.012C620.108 161.977 621.103 162.047 621.938 161.491L622.29 161.674C623.069 162.006 623.909 162.061 624.742 162.161L624.641 162.61L624.524 163.209L624.409 163.735C624.331 164.444 624.506 164.77 624.694 165.423C625.186 167.138 624.525 168.689 624.419 170.421L624.118 180.885L623.942 267.473L624.088 450.951L623.93 500.263L624.202 505.98C624.315 507.908 623.961 509.923 623.985 511.874C624.014 514.076 624.378 516.666 623.977 518.821C623.709 520.266 624.017 521.933 623.987 523.414L623.864 533.075L624.924 578.777C625.069 582.733 624.541 587.446 625.353 591.278C625.433 587.238 625.022 582.376 625.881 578.448C626.404 574.774 625.795 570.19 625.726 566.437L625.464 542.205L625.521 459.728L625.536 177.781L625.983 161.605C624.803 161.545 623.676 161.226 622.5 161.172L605.133 161.204L568.821 161.21L440.506 161.155ZM428.983 161.94L428.829 174.636C428.784 176.483 428.947 178.565 428.57 180.356L428.53 194.584C428.534 196.295 428.22 198.692 428.975 200.21C430.334 198.525 429.75 193.856 429.748 191.605L429.671 176.038C429.572 172.555 429.237 169.22 429.337 165.723C429.364 164.775 429.472 163.898 429.61 162.961C429.843 162.694 429.993 162.322 430.309 162.161C431.67 161.467 436.106 162.126 437.72 162.215C442.601 162.484 448.149 163.023 452.959 162.135L453.463 162.035C450.177 161.824 442.98 163.041 440.506 161.155C437.326 160.948 431.764 160.178 428.983 161.94Z"/>
	<path fill="#1F1F1F" transform="scale(2.51196 2.48857)" d="M428.983 161.94C431.764 160.178 437.326 160.948 440.506 161.155C442.98 163.041 450.177 161.824 453.463 162.035L452.959 162.135C448.149 163.023 442.601 162.484 437.72 162.215C436.106 162.126 431.67 161.467 430.309 162.161C429.993 162.322 429.843 162.694 429.61 162.961C429.472 163.898 429.364 164.775 429.337 165.723C429.237 169.22 429.572 172.555 429.671 176.038L429.748 191.605C429.75 193.856 430.334 198.525 428.975 200.21C428.22 198.692 428.534 196.295 428.53 194.584L428.57 180.356C428.947 178.565 428.784 176.483 428.829 174.636L428.983 161.94Z"/>
	<path fill="#1F1F1F" transform="scale(2.51196 2.48857)" d="M440.506 161.155L568.821 161.21L605.133 161.204L622.5 161.172C623.676 161.226 624.803 161.545 625.983 161.605L625.536 177.781L625.521 459.728L625.464 542.205L625.726 566.437C625.795 570.19 626.404 574.774 625.881 578.448C625.022 582.376 625.433 587.238 625.353 591.278C624.541 587.446 625.069 582.733 624.924 578.777L623.864 533.075L623.987 523.414C624.017 521.933 623.709 520.266 623.977 518.821C624.378 516.666 624.014 514.076 623.985 511.874C623.961 509.923 624.315 507.908 624.202 505.98L623.93 500.263L624.088 450.951L623.942 267.473L624.118 180.885L624.419 170.421C624.525 168.689 625.186 167.138 624.694 165.423C624.506 164.77 624.331 164.444 624.409 163.735L624.524 163.209L624.641 162.61L624.742 162.161C623.909 162.061 623.069 162.006 622.29 161.674L621.938 161.491C621.103 162.047 620.108 161.977 619.139 162.012L563.928 162.087L453.463 162.035C450.177 161.824 442.98 163.041 440.506 161.155Z"/>
</svg>
